<svg xmlns="http://www.w3.org/2000/svg" viewBox="0 0 48.51 48.51"><defs><style>.cls-1{fill:#fff;}.cls-2{fill:#383938;}.cls-3{fill:#ece315;}.cls-4{fill:#3a3a39;}.cls-5{fill:#3a3a3a;}.cls-6{fill:#3b3a3a;}.cls-7{fill:#3c3c3b;}.cls-8{fill:#3b3b3b;}.cls-9{fill:#3d3d3c;}.cls-10{fill:#414040;}</style></defs><g id="Capa_2" data-name="Capa 2"><g id="Capa_1-2" data-name="Capa 1"><rect class="cls-1" width="48.51" height="48.51"/><path class="cls-2" d="M25,17.46v-4c0-1.16-.19-1.39-1.33-1.65-.16,0-.42,0-.41-.27s.26-.24.42-.28l5.44-1.34c.24-.06.54.25.53.54,0,1.27-.11,2.55-.11,3.83,0,5.58,0,11.15,0,16.72a1.39,1.39,0,0,0,1.11,1.56c.17,0,.28.13.24.32s-.2.15-.33.15c-1.72,0-3.43,0-5.15,0-.36,0-.52-.08-.47-.46a.82.82,0,0,0,0-.27,2.69,2.69,0,0,0-.1-1.09c0-1.84-.08-3.68,0-5.52,0-.19,0-.38,0-.57,0-2.23,0-4.45,0-6.67A5.28,5.28,0,0,0,25,17.46Z"/><path class="cls-3" d="M24.91,31.42c.05.32.26.63,0,.93-.25.13-.5.26-.76.37a7.67,7.67,0,0,1-7.39-.26,6,6,0,0,1-2.66-3.82,11.7,11.7,0,0,1,.43-7.83,6.7,6.7,0,0,1,6.06-4.12,8.46,8.46,0,0,1,4.26.75.68.68,0,0,0,.15,0c.19.16.1.35.06.54s-.05.27-.07.4c-.21.05-.36-.09-.53-.17a5.11,5.11,0,0,0-1.61-.5,2.84,2.84,0,0,0-2.75,1.33,7.56,7.56,0,0,0-1.23,3.56,16.8,16.8,0,0,0-.15,3.17,11.37,11.37,0,0,0,.76,4.28,3.25,3.25,0,0,0,2.88,2.1,3.86,3.86,0,0,0,2.16-.56A1,1,0,0,1,24.91,31.42Z"/><path class="cls-4" d="M10.26,35.23c-.36,0-.72,0-1.07,0s-.32.09-.31.31c0,.46,0,.92,0,1.38s0,.92,0,1.38c0,.22.07.31.29.3.38,0,.77,0,1.15,0a1.68,1.68,0,0,0-.06-3.36Zm.8,2.17a1.22,1.22,0,0,1-1.36.54c-.13,0-.11-.15-.11-.25v-.8c0-.25,0-.49,0-.73s.09-.3.31-.3C10.89,35.87,11.43,36.58,11.06,37.4Z"/><path class="cls-5" d="M20.29,35.23a1.69,1.69,0,0,0-1.78,1.67,1.74,1.74,0,0,0,3.47,0A1.64,1.64,0,0,0,20.29,35.23Zm-.05,2.7a1,1,0,0,1-1-1,1,1,0,1,1,1,1Z"/><path class="cls-6" d="M12.41,36.89c0-.45,0-.9,0-1.34,0-.23.06-.33.3-.32q1,0,1.92,0c.28,0,.27.14.28.33s-.05.32-.3.31-.8,0-1.19,0-.31.17-.3.39,0,.42.29.4.69,0,1,0,.27.15.27.34,0,.32-.26.31-.67,0-1,0-.34.09-.34.35.07.34.33.33c.41,0,.82,0,1.23,0s.26.15.27.34,0,.31-.27.31h-2c-.25,0-.3-.11-.3-.33C12.42,37.81,12.41,37.35,12.41,36.89Z"/><path class="cls-7" d="M30.78,36.39c0,.61,0,1.19,0,1.77,0,.22,0,.39-.31.39s-.28-.18-.28-.37c0-.83,0-1.67,0-2.5,0-.13-.12-.34.12-.38a.49.49,0,0,1,.55.16c.44.6.9,1.19,1.35,1.78l.19.23c0-.69,0-1.28,0-1.88,0-.23,0-.31.29-.31s.3.11.3.33c0,.86,0,1.71,0,2.57,0,.12.09.31-.13.34s-.35,0-.48-.14c-.42-.57-.85-1.12-1.28-1.68C31,36.59,31,36.45,30.78,36.39Z"/><path class="cls-6" d="M24.57,37.55c-.09-.13-.15-.2.05-.32A1,1,0,0,0,25.13,36a1,1,0,0,0-1-.75H22.82c-.22,0-.28.06-.28.28,0,.87,0,1.74,0,2.61,0,.19,0,.37.27.37s.33-.15.32-.38,0-.36,0-.54,0-.19.12-.19.57-.1.73.24c.09.17.24.3.33.47a.68.68,0,0,0,.92.34C25,38.17,24.8,37.85,24.57,37.55Zm-.51-.65a2,2,0,0,1-.35,0c-.57,0-.57,0-.57-.59s-.08-.5.51-.51a2.38,2.38,0,0,1,.38,0c.31,0,.53.17.54.52S24.35,36.84,24.06,36.9Z"/><path class="cls-5" d="M17,35.23a1.61,1.61,0,0,1,1.08.34c.09.08.34.16.13.34s-.21.53-.55.23a.9.9,0,0,0-.48-.23,1,1,0,0,0-1.08.53,1.09,1.09,0,0,0,.25,1.27,1,1,0,0,0,1.24,0c.13-.08.22-.3.45-.09s.33.35,0,.62a1.82,1.82,0,0,1-2,0,1.7,1.7,0,0,1-.63-1.88A1.63,1.63,0,0,1,17,35.23Z"/><path class="cls-8" d="M35.58,35.46c-.07-.17-.2-.17-.34-.17s-.28,0-.35.16c-.41,1-.83,1.92-1.24,2.89,0,.06-.09.17,0,.18s.5.14.57-.2c.1-.55.44-.67.93-.6a1,1,0,0,0,.35,0c.33,0,.54.06.6.4s.37.48.77.37C36.45,37.47,36,36.47,35.58,35.46Zm.09,1.69c-.17.13-.51.05-.77.06s-.21,0-.14-.17c.15-.33.28-.65.46-1.07.11.25.18.4.24.55S35.79,37.06,35.67,37.15Z"/><path class="cls-8" d="M38.51,38.53a1.91,1.91,0,0,1-1.17-.35c-.13-.09-.23-.18-.07-.33s.16-.32.39-.13a1.27,1.27,0,0,0,.88.29c.23,0,.45-.07.49-.34s-.17-.36-.36-.42-.57-.16-.85-.26a.75.75,0,0,1-.54-.75.83.83,0,0,1,.52-.83,1.64,1.64,0,0,1,1.57.16c.11.07.2.16.08.28s-.13.34-.38.19a1.19,1.19,0,0,0-.76-.22c-.2,0-.39.08-.43.3s.12.35.31.41.47.13.7.21c.56.18.79.5.73,1a1,1,0,0,1-1,.82Z"/><path class="cls-9" d="M27,35.29H28c.19,0,.23.08.23.26s0,.28-.23.27h0c-.25,0-.58-.13-.72.09s0,.47,0,.71c0,.55,0,1.1,0,1.65,0,.25-.11.27-.3.27s-.31,0-.3-.27c0-.71,0-1.41,0-2.11,0-.27-.07-.38-.34-.35s-.26,0-.39,0-.29,0-.29-.28.13-.25.31-.25Z"/><path class="cls-10" d="M29.41,37c0,.44,0,.89,0,1.34,0,.22-.11.24-.28.24s-.33,0-.32-.25q0-1.38,0-2.76c0-.27.16-.23.32-.24s.28,0,.28.25C29.4,36,29.41,36.48,29.41,37Z"/></g></g></svg>